# xmcd
#
# Track frame offsets: 
#        150
#        17733
#        41713
#        65280
#
# Disc length: 1200 seconds
#
# Revision: 0
# Processed by: cddbd v1.5.2PL0 Copyright (c) Steve Scherf et al.
# Submitted via: ExactAudioCopy v0.99pb5
#
DISCID=2c04ae04
DTITLE=Moonfou Kraze - Voodoo Sun
DYEAR=1992
DGENRE=House
TTITLE0=Voodoo Sun (Single Version)
TTITLE1=Voodoo Sun (Tribal Sun Mix)
TTITLE2=Voodoo Sun (Voodoo Drums)
TTITLE3=Voodoo Sun (Sreamin' Spirit)
EXTD=
EXTT0=
EXTT1=
EXTT2=
EXTT3=
PLAYORDER=
